<mxfile host="Electron" modified="2023-05-31T14:28:43.510Z" agent="Mozilla/5.0 (Macintosh; Intel Mac OS X 10_15_7) AppleWebKit/537.36 (KHTML, like Gecko) draw.io/21.2.8 Chrome/112.0.5615.165 Electron/24.2.0 Safari/537.36" etag="tgDjP1YuU_hBXGq_YOXd" version="21.2.8" type="device">
  <diagram id="w0DZg5gjDVX2U03j281X" name="Page-1">
    <mxGraphModel dx="2909" dy="1044" grid="1" gridSize="10" guides="1" tooltips="1" connect="1" arrows="1" fold="1" page="1" pageScale="1" pageWidth="1169" pageHeight="827" math="0" shadow="0">
      <root>
        <mxCell id="0" />
        <mxCell id="1" parent="0" />
        <mxCell id="V7J-wsQXkFmpivZZeLGF-42" value="AZ1" style="fillColor=none;strokeColor=#147EBA;dashed=1;verticalAlign=top;fontStyle=0;fontColor=#147EBA;opacity=75;" parent="1" vertex="1">
          <mxGeometry x="200" y="80" width="300" height="520" as="geometry" />
        </mxCell>
        <mxCell id="V7J-wsQXkFmpivZZeLGF-43" value="AZ2" style="fillColor=none;strokeColor=#147EBA;dashed=1;verticalAlign=top;fontStyle=0;fontColor=#147EBA;opacity=75;" parent="1" vertex="1">
          <mxGeometry x="520" y="80" width="300" height="520" as="geometry" />
        </mxCell>
        <mxCell id="V7J-wsQXkFmpivZZeLGF-44" value="AZ3" style="fillColor=none;strokeColor=#147EBA;dashed=1;verticalAlign=top;fontStyle=0;fontColor=#147EBA;opacity=75;" parent="1" vertex="1">
          <mxGeometry x="840" y="80" width="300" height="520" as="geometry" />
        </mxCell>
        <mxCell id="V7J-wsQXkFmpivZZeLGF-3" value="Public subnet 1" style="points=[[0,0],[0.25,0],[0.5,0],[0.75,0],[1,0],[1,0.25],[1,0.5],[1,0.75],[1,1],[0.75,1],[0.5,1],[0.25,1],[0,1],[0,0.75],[0,0.5],[0,0.25]];outlineConnect=0;gradientColor=none;html=1;whiteSpace=wrap;fontSize=12;fontStyle=0;container=1;pointerEvents=0;collapsible=0;recursiveResize=0;shape=mxgraph.aws4.group;grIcon=mxgraph.aws4.group_security_group;grStroke=0;strokeColor=#248814;fillColor=#E9F3E6;verticalAlign=top;align=left;spacingLeft=30;fontColor=#248814;dashed=0;" parent="1" vertex="1">
          <mxGeometry x="210" y="108" width="280" height="130" as="geometry" />
        </mxCell>
        <mxCell id="V7J-wsQXkFmpivZZeLGF-5" value="Public subnet 2" style="points=[[0,0],[0.25,0],[0.5,0],[0.75,0],[1,0],[1,0.25],[1,0.5],[1,0.75],[1,1],[0.75,1],[0.5,1],[0.25,1],[0,1],[0,0.75],[0,0.5],[0,0.25]];outlineConnect=0;gradientColor=none;html=1;whiteSpace=wrap;fontSize=12;fontStyle=0;container=1;pointerEvents=0;collapsible=0;recursiveResize=0;shape=mxgraph.aws4.group;grIcon=mxgraph.aws4.group_security_group;grStroke=0;strokeColor=#248814;fillColor=#E9F3E6;verticalAlign=top;align=left;spacingLeft=30;fontColor=#248814;dashed=0;" parent="1" vertex="1">
          <mxGeometry x="530" y="108" width="280" height="130" as="geometry" />
        </mxCell>
        <mxCell id="V7J-wsQXkFmpivZZeLGF-6" value="Private subnet 1" style="points=[[0,0],[0.25,0],[0.5,0],[0.75,0],[1,0],[1,0.25],[1,0.5],[1,0.75],[1,1],[0.75,1],[0.5,1],[0.25,1],[0,1],[0,0.75],[0,0.5],[0,0.25]];outlineConnect=0;gradientColor=none;html=1;whiteSpace=wrap;fontSize=12;fontStyle=0;container=1;pointerEvents=0;collapsible=0;recursiveResize=0;shape=mxgraph.aws4.group;grIcon=mxgraph.aws4.group_security_group;grStroke=0;strokeColor=#147EBA;fillColor=#E6F2F8;verticalAlign=top;align=left;spacingLeft=30;fontColor=#147EBA;dashed=0;" parent="1" vertex="1">
          <mxGeometry x="210" y="260" width="280" height="330" as="geometry" />
        </mxCell>
        <mxCell id="V7J-wsQXkFmpivZZeLGF-9" value="Amazon RDS &lt;br&gt;Aurora &lt;br&gt;PostgreSQL" style="sketch=0;points=[[0,0,0],[0.25,0,0],[0.5,0,0],[0.75,0,0],[1,0,0],[0,1,0],[0.25,1,0],[0.5,1,0],[0.75,1,0],[1,1,0],[0,0.25,0],[0,0.5,0],[0,0.75,0],[1,0.25,0],[1,0.5,0],[1,0.75,0]];outlineConnect=0;fontColor=#232F3E;gradientColor=#4D72F3;gradientDirection=north;fillColor=#3334B9;strokeColor=#ffffff;dashed=0;verticalLabelPosition=bottom;verticalAlign=top;align=center;html=1;fontSize=12;fontStyle=0;aspect=fixed;shape=mxgraph.aws4.resourceIcon;resIcon=mxgraph.aws4.rds;" parent="V7J-wsQXkFmpivZZeLGF-6" vertex="1">
          <mxGeometry x="10" y="200" width="75" height="75" as="geometry" />
        </mxCell>
        <mxCell id="V7J-wsQXkFmpivZZeLGF-11" value="Amazon EFS" style="sketch=0;points=[[0,0,0],[0.25,0,0],[0.5,0,0],[0.75,0,0],[1,0,0],[0,1,0],[0.25,1,0],[0.5,1,0],[0.75,1,0],[1,1,0],[0,0.25,0],[0,0.5,0],[0,0.75,0],[1,0.25,0],[1,0.5,0],[1,0.75,0]];outlineConnect=0;fontColor=#232F3E;gradientColor=#60A337;gradientDirection=north;fillColor=#277116;strokeColor=#ffffff;dashed=0;verticalLabelPosition=bottom;verticalAlign=top;align=center;html=1;fontSize=12;fontStyle=0;aspect=fixed;shape=mxgraph.aws4.resourceIcon;resIcon=mxgraph.aws4.elastic_file_system;" parent="V7J-wsQXkFmpivZZeLGF-6" vertex="1">
          <mxGeometry x="100" y="200" width="75" height="75" as="geometry" />
        </mxCell>
        <mxCell id="V7J-wsQXkFmpivZZeLGF-10" value="Amazon MQ &lt;br&gt;(RabbitMQ)" style="sketch=0;points=[[0,0,0],[0.25,0,0],[0.5,0,0],[0.75,0,0],[1,0,0],[0,1,0],[0.25,1,0],[0.5,1,0],[0.75,1,0],[1,1,0],[0,0.25,0],[0,0.5,0],[0,0.75,0],[1,0.25,0],[1,0.5,0],[1,0.75,0]];outlineConnect=0;fontColor=#232F3E;gradientColor=#FF4F8B;gradientDirection=north;fillColor=#BC1356;strokeColor=#ffffff;dashed=0;verticalLabelPosition=bottom;verticalAlign=top;align=center;html=1;fontSize=12;fontStyle=0;aspect=fixed;shape=mxgraph.aws4.resourceIcon;resIcon=mxgraph.aws4.mq;" parent="V7J-wsQXkFmpivZZeLGF-6" vertex="1">
          <mxGeometry x="190" y="200" width="75" height="75" as="geometry" />
        </mxCell>
        <mxCell id="V7J-wsQXkFmpivZZeLGF-16" value="Galaxy&lt;br&gt;Web" style="sketch=0;html=1;dashed=0;whitespace=wrap;fillColor=#2875E2;strokeColor=#ffffff;points=[[0.005,0.63,0],[0.1,0.2,0],[0.9,0.2,0],[0.5,0,0],[0.995,0.63,0],[0.72,0.99,0],[0.5,1,0],[0.28,0.99,0]];shape=mxgraph.kubernetes.icon;prIcon=pod;verticalAlign=top;labelPosition=center;verticalLabelPosition=bottom;align=center;" parent="V7J-wsQXkFmpivZZeLGF-6" vertex="1">
          <mxGeometry x="115" y="86" width="50" height="48" as="geometry" />
        </mxCell>
        <mxCell id="V7J-wsQXkFmpivZZeLGF-18" value="Galaxy&lt;br&gt;Data" style="sketch=0;html=1;dashed=0;whitespace=wrap;fillColor=#2875E2;strokeColor=#ffffff;points=[[0.005,0.63,0],[0.1,0.2,0],[0.9,0.2,0],[0.5,0,0],[0.995,0.63,0],[0.72,0.99,0],[0.5,1,0],[0.28,0.99,0]];shape=mxgraph.kubernetes.icon;prIcon=pv;labelPosition=center;verticalLabelPosition=bottom;align=center;verticalAlign=top;" parent="V7J-wsQXkFmpivZZeLGF-6" vertex="1">
          <mxGeometry x="50" y="86" width="50" height="48" as="geometry" />
        </mxCell>
        <mxCell id="V7J-wsQXkFmpivZZeLGF-41" style="edgeStyle=orthogonalEdgeStyle;rounded=0;orthogonalLoop=1;jettySize=auto;html=1;entryX=0;entryY=0.5;entryDx=0;entryDy=0;entryPerimeter=0;" parent="1" source="V7J-wsQXkFmpivZZeLGF-12" target="V7J-wsQXkFmpivZZeLGF-15" edge="1">
          <mxGeometry relative="1" as="geometry" />
        </mxCell>
        <mxCell id="V7J-wsQXkFmpivZZeLGF-12" value="Galaxy users" style="sketch=0;outlineConnect=0;fontColor=#232F3E;gradientColor=none;fillColor=#232F3D;strokeColor=none;dashed=0;verticalLabelPosition=bottom;verticalAlign=top;align=center;html=1;fontSize=12;fontStyle=0;aspect=fixed;pointerEvents=1;shape=mxgraph.aws4.users;" parent="1" vertex="1">
          <mxGeometry x="-40" y="182.5" width="70" height="70" as="geometry" />
        </mxCell>
        <mxCell id="rX8NNWfCMOwZKB90HBs3-8" style="edgeStyle=orthogonalEdgeStyle;rounded=0;orthogonalLoop=1;jettySize=auto;html=1;entryX=0.5;entryY=0;entryDx=0;entryDy=0;entryPerimeter=0;" parent="1" source="V7J-wsQXkFmpivZZeLGF-15" target="rX8NNWfCMOwZKB90HBs3-6" edge="1">
          <mxGeometry relative="1" as="geometry" />
        </mxCell>
        <mxCell id="V7J-wsQXkFmpivZZeLGF-20" value="Private subnet 2" style="points=[[0,0],[0.25,0],[0.5,0],[0.75,0],[1,0],[1,0.25],[1,0.5],[1,0.75],[1,1],[0.75,1],[0.5,1],[0.25,1],[0,1],[0,0.75],[0,0.5],[0,0.25]];outlineConnect=0;gradientColor=none;html=1;whiteSpace=wrap;fontSize=12;fontStyle=0;container=1;pointerEvents=0;collapsible=0;recursiveResize=0;shape=mxgraph.aws4.group;grIcon=mxgraph.aws4.group_security_group;grStroke=0;strokeColor=#147EBA;fillColor=#E6F2F8;verticalAlign=top;align=left;spacingLeft=30;fontColor=#147EBA;dashed=0;" parent="1" vertex="1">
          <mxGeometry x="530" y="260" width="280" height="330" as="geometry" />
        </mxCell>
        <mxCell id="V7J-wsQXkFmpivZZeLGF-21" value="Amazon RDS &lt;br&gt;Aurora &lt;br&gt;PostgreSQL" style="sketch=0;points=[[0,0,0],[0.25,0,0],[0.5,0,0],[0.75,0,0],[1,0,0],[0,1,0],[0.25,1,0],[0.5,1,0],[0.75,1,0],[1,1,0],[0,0.25,0],[0,0.5,0],[0,0.75,0],[1,0.25,0],[1,0.5,0],[1,0.75,0]];outlineConnect=0;fontColor=#232F3E;gradientColor=#4D72F3;gradientDirection=north;fillColor=#3334B9;strokeColor=#ffffff;dashed=0;verticalLabelPosition=bottom;verticalAlign=top;align=center;html=1;fontSize=12;fontStyle=0;aspect=fixed;shape=mxgraph.aws4.resourceIcon;resIcon=mxgraph.aws4.rds;textOpacity=75;opacity=75;" parent="V7J-wsQXkFmpivZZeLGF-20" vertex="1">
          <mxGeometry x="10" y="200" width="75" height="75" as="geometry" />
        </mxCell>
        <mxCell id="V7J-wsQXkFmpivZZeLGF-22" value="Amazon EFS" style="sketch=0;points=[[0,0,0],[0.25,0,0],[0.5,0,0],[0.75,0,0],[1,0,0],[0,1,0],[0.25,1,0],[0.5,1,0],[0.75,1,0],[1,1,0],[0,0.25,0],[0,0.5,0],[0,0.75,0],[1,0.25,0],[1,0.5,0],[1,0.75,0]];outlineConnect=0;fontColor=#232F3E;gradientColor=#60A337;gradientDirection=north;fillColor=#277116;strokeColor=#ffffff;dashed=0;verticalLabelPosition=bottom;verticalAlign=top;align=center;html=1;fontSize=12;fontStyle=0;aspect=fixed;shape=mxgraph.aws4.resourceIcon;resIcon=mxgraph.aws4.elastic_file_system;textOpacity=75;opacity=75;" parent="V7J-wsQXkFmpivZZeLGF-20" vertex="1">
          <mxGeometry x="100" y="200" width="75" height="75" as="geometry" />
        </mxCell>
        <mxCell id="V7J-wsQXkFmpivZZeLGF-23" value="Amazon MQ &lt;br&gt;(RabbitMQ)" style="sketch=0;points=[[0,0,0],[0.25,0,0],[0.5,0,0],[0.75,0,0],[1,0,0],[0,1,0],[0.25,1,0],[0.5,1,0],[0.75,1,0],[1,1,0],[0,0.25,0],[0,0.5,0],[0,0.75,0],[1,0.25,0],[1,0.5,0],[1,0.75,0]];outlineConnect=0;fontColor=#232F3E;gradientColor=#FF4F8B;gradientDirection=north;fillColor=#BC1356;strokeColor=#ffffff;dashed=0;verticalLabelPosition=bottom;verticalAlign=top;align=center;html=1;fontSize=12;fontStyle=0;aspect=fixed;shape=mxgraph.aws4.resourceIcon;resIcon=mxgraph.aws4.mq;textOpacity=75;opacity=75;" parent="V7J-wsQXkFmpivZZeLGF-20" vertex="1">
          <mxGeometry x="190" y="200" width="75" height="75" as="geometry" />
        </mxCell>
        <mxCell id="V7J-wsQXkFmpivZZeLGF-24" value="Galaxy&lt;br&gt;Web" style="sketch=0;html=1;dashed=0;whitespace=wrap;fillColor=#2875E2;strokeColor=#ffffff;points=[[0.005,0.63,0],[0.1,0.2,0],[0.9,0.2,0],[0.5,0,0],[0.995,0.63,0],[0.72,0.99,0],[0.5,1,0],[0.28,0.99,0]];shape=mxgraph.kubernetes.icon;prIcon=pod;verticalAlign=top;labelPosition=center;verticalLabelPosition=bottom;align=center;" parent="V7J-wsQXkFmpivZZeLGF-20" vertex="1">
          <mxGeometry x="115" y="90" width="50" height="48" as="geometry" />
        </mxCell>
        <mxCell id="V7J-wsQXkFmpivZZeLGF-25" value="Galaxy&lt;br&gt;Jobs" style="sketch=0;html=1;dashed=0;whitespace=wrap;fillColor=#2875E2;strokeColor=#ffffff;points=[[0.005,0.63,0],[0.1,0.2,0],[0.9,0.2,0],[0.5,0,0],[0.995,0.63,0],[0.72,0.99,0],[0.5,1,0],[0.28,0.99,0]];shape=mxgraph.kubernetes.icon;prIcon=pod;verticalAlign=top;labelPosition=center;verticalLabelPosition=bottom;align=center;" parent="V7J-wsQXkFmpivZZeLGF-20" vertex="1">
          <mxGeometry x="180" y="90" width="50" height="48" as="geometry" />
        </mxCell>
        <mxCell id="V7J-wsQXkFmpivZZeLGF-26" value="Galaxy&lt;br&gt;Data" style="sketch=0;html=1;dashed=0;whitespace=wrap;fillColor=#2875E2;strokeColor=#ffffff;points=[[0.005,0.63,0],[0.1,0.2,0],[0.9,0.2,0],[0.5,0,0],[0.995,0.63,0],[0.72,0.99,0],[0.5,1,0],[0.28,0.99,0]];shape=mxgraph.kubernetes.icon;prIcon=pv;labelPosition=center;verticalLabelPosition=bottom;align=center;verticalAlign=top;" parent="V7J-wsQXkFmpivZZeLGF-20" vertex="1">
          <mxGeometry x="50" y="90" width="50" height="48" as="geometry" />
        </mxCell>
        <mxCell id="V7J-wsQXkFmpivZZeLGF-27" value="Private subnet 3" style="points=[[0,0],[0.25,0],[0.5,0],[0.75,0],[1,0],[1,0.25],[1,0.5],[1,0.75],[1,1],[0.75,1],[0.5,1],[0.25,1],[0,1],[0,0.75],[0,0.5],[0,0.25]];outlineConnect=0;gradientColor=none;html=1;whiteSpace=wrap;fontSize=12;fontStyle=0;container=1;pointerEvents=0;collapsible=0;recursiveResize=0;shape=mxgraph.aws4.group;grIcon=mxgraph.aws4.group_security_group;grStroke=0;strokeColor=#147EBA;fillColor=#E6F2F8;verticalAlign=top;align=left;spacingLeft=30;fontColor=#147EBA;dashed=0;" parent="1" vertex="1">
          <mxGeometry x="850" y="260" width="280" height="330" as="geometry" />
        </mxCell>
        <mxCell id="V7J-wsQXkFmpivZZeLGF-28" value="Amazon RDS &lt;br&gt;Aurora &lt;br&gt;PostgreSQL" style="sketch=0;points=[[0,0,0],[0.25,0,0],[0.5,0,0],[0.75,0,0],[1,0,0],[0,1,0],[0.25,1,0],[0.5,1,0],[0.75,1,0],[1,1,0],[0,0.25,0],[0,0.5,0],[0,0.75,0],[1,0.25,0],[1,0.5,0],[1,0.75,0]];outlineConnect=0;fontColor=#232F3E;gradientColor=#4D72F3;gradientDirection=north;fillColor=#3334B9;strokeColor=#ffffff;dashed=0;verticalLabelPosition=bottom;verticalAlign=top;align=center;html=1;fontSize=12;fontStyle=0;aspect=fixed;shape=mxgraph.aws4.resourceIcon;resIcon=mxgraph.aws4.rds;opacity=75;textOpacity=75;" parent="V7J-wsQXkFmpivZZeLGF-27" vertex="1">
          <mxGeometry x="12.5" y="200" width="75" height="75" as="geometry" />
        </mxCell>
        <mxCell id="V7J-wsQXkFmpivZZeLGF-29" value="Amazon EFS" style="sketch=0;points=[[0,0,0],[0.25,0,0],[0.5,0,0],[0.75,0,0],[1,0,0],[0,1,0],[0.25,1,0],[0.5,1,0],[0.75,1,0],[1,1,0],[0,0.25,0],[0,0.5,0],[0,0.75,0],[1,0.25,0],[1,0.5,0],[1,0.75,0]];outlineConnect=0;fontColor=#232F3E;gradientColor=#60A337;gradientDirection=north;fillColor=#277116;strokeColor=#ffffff;dashed=0;verticalLabelPosition=bottom;verticalAlign=top;align=center;html=1;fontSize=12;fontStyle=0;aspect=fixed;shape=mxgraph.aws4.resourceIcon;resIcon=mxgraph.aws4.elastic_file_system;opacity=75;textOpacity=75;" parent="V7J-wsQXkFmpivZZeLGF-27" vertex="1">
          <mxGeometry x="102.5" y="200" width="75" height="75" as="geometry" />
        </mxCell>
        <mxCell id="V7J-wsQXkFmpivZZeLGF-30" value="Amazon MQ &lt;br&gt;(RabbitMQ)" style="sketch=0;points=[[0,0,0],[0.25,0,0],[0.5,0,0],[0.75,0,0],[1,0,0],[0,1,0],[0.25,1,0],[0.5,1,0],[0.75,1,0],[1,1,0],[0,0.25,0],[0,0.5,0],[0,0.75,0],[1,0.25,0],[1,0.5,0],[1,0.75,0]];outlineConnect=0;fontColor=#232F3E;gradientColor=#FF4F8B;gradientDirection=north;fillColor=#BC1356;strokeColor=#ffffff;dashed=0;verticalLabelPosition=bottom;verticalAlign=top;align=center;html=1;fontSize=12;fontStyle=0;aspect=fixed;shape=mxgraph.aws4.resourceIcon;resIcon=mxgraph.aws4.mq;opacity=75;textOpacity=75;" parent="V7J-wsQXkFmpivZZeLGF-27" vertex="1">
          <mxGeometry x="192.5" y="200" width="75" height="75" as="geometry" />
        </mxCell>
        <mxCell id="V7J-wsQXkFmpivZZeLGF-31" value="Galaxy&lt;br&gt;Web" style="sketch=0;html=1;dashed=0;whitespace=wrap;fillColor=#2875E2;strokeColor=#ffffff;points=[[0.005,0.63,0],[0.1,0.2,0],[0.9,0.2,0],[0.5,0,0],[0.995,0.63,0],[0.72,0.99,0],[0.5,1,0],[0.28,0.99,0]];shape=mxgraph.kubernetes.icon;prIcon=pod;verticalAlign=top;labelPosition=center;verticalLabelPosition=bottom;align=center;" parent="V7J-wsQXkFmpivZZeLGF-27" vertex="1">
          <mxGeometry x="115" y="90" width="50" height="48" as="geometry" />
        </mxCell>
        <mxCell id="V7J-wsQXkFmpivZZeLGF-32" value="Galaxy&lt;br&gt;Jobs" style="sketch=0;html=1;dashed=0;whitespace=wrap;fillColor=#2875E2;strokeColor=#ffffff;points=[[0.005,0.63,0],[0.1,0.2,0],[0.9,0.2,0],[0.5,0,0],[0.995,0.63,0],[0.72,0.99,0],[0.5,1,0],[0.28,0.99,0]];shape=mxgraph.kubernetes.icon;prIcon=pod;verticalAlign=top;labelPosition=center;verticalLabelPosition=bottom;align=center;" parent="V7J-wsQXkFmpivZZeLGF-27" vertex="1">
          <mxGeometry x="180" y="90" width="50" height="48" as="geometry" />
        </mxCell>
        <mxCell id="V7J-wsQXkFmpivZZeLGF-33" value="Galaxy&lt;br&gt;Data" style="sketch=0;html=1;dashed=0;whitespace=wrap;fillColor=#2875E2;strokeColor=#ffffff;points=[[0.005,0.63,0],[0.1,0.2,0],[0.9,0.2,0],[0.5,0,0],[0.995,0.63,0],[0.72,0.99,0],[0.5,1,0],[0.28,0.99,0]];shape=mxgraph.kubernetes.icon;prIcon=pv;labelPosition=center;verticalLabelPosition=bottom;align=center;verticalAlign=top;" parent="V7J-wsQXkFmpivZZeLGF-27" vertex="1">
          <mxGeometry x="50" y="90" width="50" height="48" as="geometry" />
        </mxCell>
        <mxCell id="V7J-wsQXkFmpivZZeLGF-45" style="edgeStyle=orthogonalEdgeStyle;rounded=0;orthogonalLoop=1;jettySize=auto;html=1;entryX=0;entryY=0.5;entryDx=0;entryDy=0;entryPerimeter=0;" parent="1" source="V7J-wsQXkFmpivZZeLGF-34" target="V7J-wsQXkFmpivZZeLGF-36" edge="1">
          <mxGeometry relative="1" as="geometry" />
        </mxCell>
        <mxCell id="V7J-wsQXkFmpivZZeLGF-34" value="Auto Scaling EKS Node Group" style="points=[[0,0],[0.25,0],[0.5,0],[0.75,0],[1,0],[1,0.25],[1,0.5],[1,0.75],[1,1],[0.75,1],[0.5,1],[0.25,1],[0,1],[0,0.75],[0,0.5],[0,0.25]];outlineConnect=0;gradientColor=none;html=1;whiteSpace=wrap;fontSize=12;fontStyle=0;container=1;pointerEvents=0;collapsible=0;recursiveResize=0;shape=mxgraph.aws4.groupCenter;grIcon=mxgraph.aws4.group_auto_scaling_group;grStroke=1;strokeColor=#D86613;fillColor=none;verticalAlign=top;align=center;fontColor=#D86613;dashed=1;spacingTop=25;" parent="1" vertex="1">
          <mxGeometry x="220" y="290" width="900" height="158" as="geometry" />
        </mxCell>
        <mxCell id="V7J-wsQXkFmpivZZeLGF-35" value="Public subnet 3" style="points=[[0,0],[0.25,0],[0.5,0],[0.75,0],[1,0],[1,0.25],[1,0.5],[1,0.75],[1,1],[0.75,1],[0.5,1],[0.25,1],[0,1],[0,0.75],[0,0.5],[0,0.25]];outlineConnect=0;gradientColor=none;html=1;whiteSpace=wrap;fontSize=12;fontStyle=0;container=1;pointerEvents=0;collapsible=0;recursiveResize=0;shape=mxgraph.aws4.group;grIcon=mxgraph.aws4.group_security_group;grStroke=0;strokeColor=#248814;fillColor=#E9F3E6;verticalAlign=top;align=left;spacingLeft=30;fontColor=#248814;dashed=0;" parent="1" vertex="1">
          <mxGeometry x="850" y="108" width="280" height="130" as="geometry" />
        </mxCell>
        <mxCell id="V7J-wsQXkFmpivZZeLGF-36" value="&lt;div&gt;Amazon Simple &lt;br&gt;&lt;/div&gt;&lt;div&gt;Storage Service (S3)&lt;/div&gt;Galaxy public&lt;br&gt;Reference data" style="sketch=0;points=[[0,0,0],[0.25,0,0],[0.5,0,0],[0.75,0,0],[1,0,0],[0,1,0],[0.25,1,0],[0.5,1,0],[0.75,1,0],[1,1,0],[0,0.25,0],[0,0.5,0],[0,0.75,0],[1,0.25,0],[1,0.5,0],[1,0.75,0]];outlineConnect=0;fontColor=#232F3E;gradientColor=#60A337;gradientDirection=north;fillColor=#277116;strokeColor=#ffffff;dashed=0;verticalLabelPosition=bottom;verticalAlign=top;align=center;html=1;fontSize=12;fontStyle=0;aspect=fixed;shape=mxgraph.aws4.resourceIcon;resIcon=mxgraph.aws4.s3;" parent="1" vertex="1">
          <mxGeometry x="1200" y="332.5" width="75" height="75" as="geometry" />
        </mxCell>
        <mxCell id="V7J-wsQXkFmpivZZeLGF-37" style="edgeStyle=orthogonalEdgeStyle;rounded=0;orthogonalLoop=1;jettySize=auto;html=1;entryX=0;entryY=0.5;entryDx=0;entryDy=0;entryPerimeter=0;" parent="1" source="V7J-wsQXkFmpivZZeLGF-10" target="V7J-wsQXkFmpivZZeLGF-21" edge="1">
          <mxGeometry relative="1" as="geometry" />
        </mxCell>
        <mxCell id="V7J-wsQXkFmpivZZeLGF-38" style="edgeStyle=orthogonalEdgeStyle;rounded=0;orthogonalLoop=1;jettySize=auto;html=1;" parent="1" source="V7J-wsQXkFmpivZZeLGF-23" target="V7J-wsQXkFmpivZZeLGF-28" edge="1">
          <mxGeometry relative="1" as="geometry" />
        </mxCell>
        <mxCell id="V7J-wsQXkFmpivZZeLGF-46" value="VPC" style="points=[[0,0],[0.25,0],[0.5,0],[0.75,0],[1,0],[1,0.25],[1,0.5],[1,0.75],[1,1],[0.75,1],[0.5,1],[0.25,1],[0,1],[0,0.75],[0,0.5],[0,0.25]];outlineConnect=0;gradientColor=none;html=1;whiteSpace=wrap;fontSize=12;fontStyle=0;container=1;pointerEvents=0;collapsible=0;recursiveResize=0;shape=mxgraph.aws4.group;grIcon=mxgraph.aws4.group_vpc;strokeColor=#248814;fillColor=none;verticalAlign=top;align=left;spacingLeft=30;fontColor=#000000;dashed=0;strokeWidth=2;" parent="1" vertex="1">
          <mxGeometry x="70" y="40" width="1090" height="600" as="geometry" />
        </mxCell>
        <mxCell id="jP9j9Yo7nXtIdC0VoG28-1" value="AWS Secrets&lt;br&gt;Manager" style="sketch=0;points=[[0,0,0],[0.25,0,0],[0.5,0,0],[0.75,0,0],[1,0,0],[0,1,0],[0.25,1,0],[0.5,1,0],[0.75,1,0],[1,1,0],[0,0.25,0],[0,0.5,0],[0,0.75,0],[1,0.25,0],[1,0.5,0],[1,0.75,0]];outlineConnect=0;fontColor=#232F3E;gradientColor=#F54749;gradientDirection=north;fillColor=#C7131F;strokeColor=#ffffff;dashed=0;verticalLabelPosition=bottom;verticalAlign=top;align=center;html=1;fontSize=12;fontStyle=0;aspect=fixed;shape=mxgraph.aws4.resourceIcon;resIcon=mxgraph.aws4.secrets_manager;" parent="V7J-wsQXkFmpivZZeLGF-46" vertex="1">
          <mxGeometry x="30" y="260" width="75" height="75" as="geometry" />
        </mxCell>
        <mxCell id="jP9j9Yo7nXtIdC0VoG28-2" value="AWS Backup" style="sketch=0;points=[[0,0,0],[0.25,0,0],[0.5,0,0],[0.75,0,0],[1,0,0],[0,1,0],[0.25,1,0],[0.5,1,0],[0.75,1,0],[1,1,0],[0,0.25,0],[0,0.5,0],[0,0.75,0],[1,0.25,0],[1,0.5,0],[1,0.75,0]];outlineConnect=0;fontColor=#232F3E;gradientColor=#60A337;gradientDirection=north;fillColor=#277116;strokeColor=#ffffff;dashed=0;verticalLabelPosition=bottom;verticalAlign=top;align=center;html=1;fontSize=12;fontStyle=0;aspect=fixed;shape=mxgraph.aws4.resourceIcon;resIcon=mxgraph.aws4.backup;" parent="V7J-wsQXkFmpivZZeLGF-46" vertex="1">
          <mxGeometry x="30" y="380" width="75" height="75" as="geometry" />
        </mxCell>
        <mxCell id="V7J-wsQXkFmpivZZeLGF-15" value="&lt;div&gt;Amazon Elastic&lt;/div&gt;&lt;div&gt;Load Balancer&lt;/div&gt;" style="sketch=0;points=[[0,0,0],[0.25,0,0],[0.5,0,0],[0.75,0,0],[1,0,0],[0,1,0],[0.25,1,0],[0.5,1,0],[0.75,1,0],[1,1,0],[0,0.25,0],[0,0.5,0],[0,0.75,0],[1,0.25,0],[1,0.5,0],[1,0.75,0]];outlineConnect=0;fontColor=#232F3E;gradientColor=#945DF2;gradientDirection=north;fillColor=#5A30B5;strokeColor=#ffffff;dashed=0;verticalLabelPosition=bottom;verticalAlign=top;align=center;html=1;fontSize=12;fontStyle=0;aspect=fixed;shape=mxgraph.aws4.resourceIcon;resIcon=mxgraph.aws4.elastic_load_balancing;" parent="V7J-wsQXkFmpivZZeLGF-46" vertex="1">
          <mxGeometry x="30" y="140" width="75" height="75" as="geometry" />
        </mxCell>
        <mxCell id="V7J-wsQXkFmpivZZeLGF-14" value="Amazon EKS" style="sketch=0;points=[[0,0,0],[0.25,0,0],[0.5,0,0],[0.75,0,0],[1,0,0],[0,1,0],[0.25,1,0],[0.5,1,0],[0.75,1,0],[1,1,0],[0,0.25,0],[0,0.5,0],[0,0.75,0],[1,0.25,0],[1,0.5,0],[1,0.75,0]];outlineConnect=0;fontColor=#232F3E;gradientColor=#F78E04;gradientDirection=north;fillColor=#D05C17;strokeColor=#ffffff;dashed=0;verticalLabelPosition=bottom;verticalAlign=top;align=center;html=1;fontSize=12;fontStyle=0;aspect=fixed;shape=mxgraph.aws4.resourceIcon;resIcon=mxgraph.aws4.eks;" parent="V7J-wsQXkFmpivZZeLGF-46" vertex="1">
          <mxGeometry x="30" y="40" width="75" height="75" as="geometry" />
        </mxCell>
        <mxCell id="jP9j9Yo7nXtIdC0VoG28-7" value="Amazon CloudWatch" style="sketch=0;points=[[0,0,0],[0.25,0,0],[0.5,0,0],[0.75,0,0],[1,0,0],[0,1,0],[0.25,1,0],[0.5,1,0],[0.75,1,0],[1,1,0],[0,0.25,0],[0,0.5,0],[0,0.75,0],[1,0.25,0],[1,0.5,0],[1,0.75,0]];points=[[0,0,0],[0.25,0,0],[0.5,0,0],[0.75,0,0],[1,0,0],[0,1,0],[0.25,1,0],[0.5,1,0],[0.75,1,0],[1,1,0],[0,0.25,0],[0,0.5,0],[0,0.75,0],[1,0.25,0],[1,0.5,0],[1,0.75,0]];outlineConnect=0;fontColor=#232F3E;gradientColor=#F34482;gradientDirection=north;fillColor=#BC1356;strokeColor=#ffffff;dashed=0;verticalLabelPosition=bottom;verticalAlign=top;align=center;html=1;fontSize=12;fontStyle=0;aspect=fixed;shape=mxgraph.aws4.resourceIcon;resIcon=mxgraph.aws4.cloudwatch_2;" parent="V7J-wsQXkFmpivZZeLGF-46" vertex="1">
          <mxGeometry x="30" y="490" width="75" height="75" as="geometry" />
        </mxCell>
        <mxCell id="rX8NNWfCMOwZKB90HBs3-6" value="&lt;br&gt;&lt;br&gt;&lt;br&gt;&lt;br&gt;&lt;br&gt;Galaxy Ingress" style="html=1;dashed=0;whitespace=wrap;fillColor=#2875E2;strokeColor=#ffffff;points=[[0.005,0.63,0],[0.1,0.2,0],[0.9,0.2,0],[0.5,0,0],[0.995,0.63,0],[0.72,0.99,0],[0.5,1,0],[0.28,0.99,0]];shape=mxgraph.kubernetes.icon;prIcon=ing" parent="1" vertex="1">
          <mxGeometry x="730" y="250" width="50" height="48" as="geometry" />
        </mxCell>
        <mxCell id="rX8NNWfCMOwZKB90HBs3-10" value="Galaxy&lt;br&gt;Jobs" style="sketch=0;html=1;dashed=0;whitespace=wrap;fillColor=#2875E2;strokeColor=#ffffff;points=[[0.005,0.63,0],[0.1,0.2,0],[0.9,0.2,0],[0.5,0,0],[0.995,0.63,0],[0.72,0.99,0],[0.5,1,0],[0.28,0.99,0]];shape=mxgraph.kubernetes.icon;prIcon=pod;verticalAlign=top;labelPosition=center;verticalLabelPosition=bottom;align=center;" parent="1" vertex="1">
          <mxGeometry x="390" y="346" width="50" height="48" as="geometry" />
        </mxCell>
        <mxCell id="jP9j9Yo7nXtIdC0VoG28-3" value="Steps" parent="0" />
        <mxCell id="jP9j9Yo7nXtIdC0VoG28-9" value="&lt;font color=&quot;#ffffff&quot; face=&quot;Amazon Ember&quot; style=&quot;font-size: 25px;&quot;&gt;&lt;b style=&quot;font-size: 25px;&quot;&gt;1&lt;/b&gt;&lt;/font&gt;" style="whiteSpace=wrap;html=1;aspect=fixed;rounded=1;fillColor=#007CBD;strokeColor=none;fontSize=25;fontFamily=Amazon Ember;" parent="jP9j9Yo7nXtIdC0VoG28-3" vertex="1">
          <mxGeometry x="1360" y="40" width="40" height="40" as="geometry" />
        </mxCell>
        <mxCell id="jP9j9Yo7nXtIdC0VoG28-10" value="&lt;font color=&quot;#ffffff&quot; face=&quot;Amazon Ember&quot; style=&quot;font-size: 25px&quot;&gt;&lt;b style=&quot;font-size: 25px&quot;&gt;2&lt;/b&gt;&lt;/font&gt;" style="whiteSpace=wrap;html=1;aspect=fixed;rounded=1;fillColor=#007CBD;strokeColor=none;fontSize=25;fontFamily=Amazon Ember;" parent="jP9j9Yo7nXtIdC0VoG28-3" vertex="1">
          <mxGeometry x="1360" y="130" width="40" height="40" as="geometry" />
        </mxCell>
        <mxCell id="jP9j9Yo7nXtIdC0VoG28-11" value="&lt;font color=&quot;#ffffff&quot; face=&quot;Amazon Ember&quot; style=&quot;font-size: 25px&quot;&gt;&lt;b style=&quot;font-size: 25px&quot;&gt;3&lt;/b&gt;&lt;/font&gt;" style="whiteSpace=wrap;html=1;aspect=fixed;rounded=1;fillColor=#007CBD;strokeColor=none;fontSize=25;fontFamily=Amazon Ember;" parent="jP9j9Yo7nXtIdC0VoG28-3" vertex="1">
          <mxGeometry x="1360" y="200" width="40" height="40" as="geometry" />
        </mxCell>
        <mxCell id="jP9j9Yo7nXtIdC0VoG28-12" value="&lt;font color=&quot;#ffffff&quot; face=&quot;Amazon Ember&quot; style=&quot;font-size: 25px&quot;&gt;&lt;b style=&quot;font-size: 25px&quot;&gt;4&lt;/b&gt;&lt;/font&gt;" style="whiteSpace=wrap;html=1;aspect=fixed;rounded=1;fillColor=#007CBD;strokeColor=none;fontSize=25;fontFamily=Amazon Ember;" parent="jP9j9Yo7nXtIdC0VoG28-3" vertex="1">
          <mxGeometry x="1360" y="330" width="40" height="40" as="geometry" />
        </mxCell>
        <mxCell id="jP9j9Yo7nXtIdC0VoG28-14" value="&lt;font color=&quot;#ffffff&quot; face=&quot;Amazon Ember&quot; style=&quot;font-size: 25px&quot;&gt;&lt;b style=&quot;font-size: 25px&quot;&gt;2&lt;/b&gt;&lt;/font&gt;" style="whiteSpace=wrap;html=1;aspect=fixed;rounded=1;fillColor=#007CBD;strokeColor=none;fontSize=25;fontFamily=Amazon Ember;" parent="jP9j9Yo7nXtIdC0VoG28-3" vertex="1">
          <mxGeometry x="530" y="320" width="40" height="40" as="geometry" />
        </mxCell>
        <mxCell id="jP9j9Yo7nXtIdC0VoG28-15" value="&lt;font color=&quot;#ffffff&quot; face=&quot;Amazon Ember&quot; style=&quot;font-size: 25px&quot;&gt;&lt;b style=&quot;font-size: 25px&quot;&gt;3&lt;/b&gt;&lt;/font&gt;" style="whiteSpace=wrap;html=1;aspect=fixed;rounded=1;fillColor=#007CBD;strokeColor=none;fontSize=25;fontFamily=Amazon Ember;" parent="jP9j9Yo7nXtIdC0VoG28-3" vertex="1">
          <mxGeometry x="320" y="570" width="40" height="40" as="geometry" />
        </mxCell>
        <mxCell id="jP9j9Yo7nXtIdC0VoG28-17" value="&lt;font color=&quot;#ffffff&quot; face=&quot;Amazon Ember&quot; style=&quot;font-size: 25px&quot;&gt;&lt;b style=&quot;font-size: 25px&quot;&gt;5&lt;/b&gt;&lt;/font&gt;" style="whiteSpace=wrap;html=1;aspect=fixed;rounded=1;fillColor=#007CBD;strokeColor=none;fontSize=25;fontFamily=Amazon Ember;" parent="jP9j9Yo7nXtIdC0VoG28-3" vertex="1">
          <mxGeometry x="1360" y="390" width="40" height="40" as="geometry" />
        </mxCell>
        <mxCell id="jP9j9Yo7nXtIdC0VoG28-18" value="&lt;font color=&quot;#ffffff&quot; face=&quot;Amazon Ember&quot; style=&quot;font-size: 25px&quot;&gt;&lt;b style=&quot;font-size: 25px&quot;&gt;6&lt;/b&gt;&lt;/font&gt;" style="whiteSpace=wrap;html=1;aspect=fixed;rounded=1;fillColor=#007CBD;strokeColor=none;fontSize=25;fontFamily=Amazon Ember;" parent="jP9j9Yo7nXtIdC0VoG28-3" vertex="1">
          <mxGeometry x="1360" y="470" width="40" height="40" as="geometry" />
        </mxCell>
        <mxCell id="jP9j9Yo7nXtIdC0VoG28-19" value="&lt;font color=&quot;#ffffff&quot; face=&quot;Amazon Ember&quot; style=&quot;font-size: 25px&quot;&gt;&lt;b style=&quot;font-size: 25px&quot;&gt;5&lt;/b&gt;&lt;/font&gt;" style="whiteSpace=wrap;html=1;aspect=fixed;rounded=1;fillColor=#007CBD;strokeColor=none;fontSize=25;fontFamily=Amazon Ember;" parent="jP9j9Yo7nXtIdC0VoG28-3" vertex="1">
          <mxGeometry x="40" y="460" width="40" height="40" as="geometry" />
        </mxCell>
        <mxCell id="jP9j9Yo7nXtIdC0VoG28-20" value="&lt;font color=&quot;#ffffff&quot; face=&quot;Amazon Ember&quot; style=&quot;font-size: 25px&quot;&gt;&lt;b style=&quot;font-size: 25px&quot;&gt;6&lt;/b&gt;&lt;/font&gt;" style="whiteSpace=wrap;html=1;aspect=fixed;rounded=1;fillColor=#007CBD;strokeColor=none;fontSize=25;fontFamily=Amazon Ember;" parent="jP9j9Yo7nXtIdC0VoG28-3" vertex="1">
          <mxGeometry x="1140" y="310" width="40" height="40" as="geometry" />
        </mxCell>
        <mxCell id="jP9j9Yo7nXtIdC0VoG28-22" value="The Galaxy application is deployed as a Kubernetes Helm chart on the managed &lt;b&gt;Amazon Elastic Kubernetes Service (EKS)&lt;/b&gt;. End users can access Galaxy through an &lt;b&gt;Application Load Balancer&lt;/b&gt; and the Kubernetes ingress controller, both of which are deployed by the &lt;b&gt;EKS Blueprints&lt;/b&gt;." style="text;html=1;strokeColor=none;fillColor=none;align=left;verticalAlign=top;whiteSpace=wrap;rounded=0;fontSize=16;fontColor=#000000;" parent="jP9j9Yo7nXtIdC0VoG28-3" vertex="1">
          <mxGeometry x="1441" y="35" width="626" height="95" as="geometry" />
        </mxCell>
        <mxCell id="jP9j9Yo7nXtIdC0VoG28-24" value="The different components of Galaxy, including the web and job servers, are run in isolated Kubernetes pods on managed EKS nodes. Both the pods and nodes are configured for horizontal scaling, enabling efficient resource utilization and scalability." style="text;html=1;strokeColor=none;fillColor=none;align=left;verticalAlign=top;whiteSpace=wrap;rounded=0;fontSize=16;fontColor=#000000;" parent="jP9j9Yo7nXtIdC0VoG28-3" vertex="1">
          <mxGeometry x="1441" y="125" width="626" height="95" as="geometry" />
        </mxCell>
        <mxCell id="jP9j9Yo7nXtIdC0VoG28-25" value="AWS managed services are utilized to deploy Galaxy dependencies, enhancing reliability and minimizing operational overhead. Amazon Aurora Serverless is used for PostgreSQL databases, while Amazon Elastic File System (EFS) serves as a redundant storage layer. Additionally, Amazon MQ is used as a managed RabbitMQ broker. These services are designed to leverage multiple availability zones and operate as a cluster, thereby augmenting the reliability of the Galaxy deployment." style="text;html=1;strokeColor=none;fillColor=none;align=left;verticalAlign=top;whiteSpace=wrap;rounded=0;fontSize=16;fontColor=#000000;" parent="jP9j9Yo7nXtIdC0VoG28-3" vertex="1">
          <mxGeometry x="1441" y="192.5" width="626" height="95" as="geometry" />
        </mxCell>
        <mxCell id="jP9j9Yo7nXtIdC0VoG28-26" value="AWS Secrets Manager is utilized to securely store and provide credentials for PostgreSQL databases and the RabbitMQ broker." style="text;html=1;strokeColor=none;fillColor=none;align=left;verticalAlign=top;whiteSpace=wrap;rounded=0;fontSize=16;fontColor=#000000;" parent="jP9j9Yo7nXtIdC0VoG28-3" vertex="1">
          <mxGeometry x="1441" y="320" width="626" height="50" as="geometry" />
        </mxCell>
        <mxCell id="jP9j9Yo7nXtIdC0VoG28-27" value="The monitoring and log collection of both Galaxy components and AWS infrastructure are centralized in Amazon CloudWatch. Additionally, regular backups of EFS file systems and PostgreSQL databases are performed using AWS Backup." style="text;html=1;strokeColor=none;fillColor=none;align=left;verticalAlign=top;whiteSpace=wrap;rounded=0;fontSize=16;fontColor=#000000;" parent="jP9j9Yo7nXtIdC0VoG28-3" vertex="1">
          <mxGeometry x="1441" y="380" width="626" height="70" as="geometry" />
        </mxCell>
        <mxCell id="jP9j9Yo7nXtIdC0VoG28-29" value="Amazon Simple Storage Service (S3) is utilized to provision preinstalled tools metadata and reference data provided by the Galaxy team." style="text;html=1;strokeColor=none;fillColor=none;align=left;verticalAlign=top;whiteSpace=wrap;rounded=0;fontSize=16;fontColor=#000000;" parent="jP9j9Yo7nXtIdC0VoG28-3" vertex="1">
          <mxGeometry x="1441" y="460" width="626" height="50" as="geometry" />
        </mxCell>
        <mxCell id="jP9j9Yo7nXtIdC0VoG28-16" value="&lt;font color=&quot;#ffffff&quot; face=&quot;Amazon Ember&quot; style=&quot;font-size: 25px&quot;&gt;&lt;b style=&quot;font-size: 25px&quot;&gt;4&lt;/b&gt;&lt;/font&gt;" style="whiteSpace=wrap;html=1;aspect=fixed;rounded=1;fillColor=#007CBD;strokeColor=none;fontSize=25;fontFamily=Amazon Ember;" parent="jP9j9Yo7nXtIdC0VoG28-3" vertex="1">
          <mxGeometry x="40" y="320" width="40" height="40" as="geometry" />
        </mxCell>
        <mxCell id="jP9j9Yo7nXtIdC0VoG28-13" value="&lt;font color=&quot;#ffffff&quot; face=&quot;Amazon Ember&quot; style=&quot;font-size: 25px;&quot;&gt;&lt;b style=&quot;font-size: 25px;&quot;&gt;1&lt;/b&gt;&lt;/font&gt;" style="whiteSpace=wrap;html=1;aspect=fixed;rounded=1;fillColor=#007CBD;strokeColor=none;fontSize=25;fontFamily=Amazon Ember;" parent="jP9j9Yo7nXtIdC0VoG28-3" vertex="1">
          <mxGeometry x="40" y="170" width="40" height="40" as="geometry" />
        </mxCell>
      </root>
    </mxGraphModel>
  </diagram>
</mxfile>
